<svg xmlns="http://www.w3.org/2000/svg" width="38.55" height="27.504" viewBox="0 0 38.55 27.504">
  <g id="그룹_1853" data-name="그룹 1853" transform="translate(-1288.881 -160.395)">
    <path id="패스_1104" data-name="패스 1104" d="M1314.139,188.1h-1.218a.727.727,0,0,1-.718-.7,10.259,10.259,0,0,0-1.979-5.41,9.969,9.969,0,0,0-1.834-1.923,10.341,10.341,0,0,0-16.842,7.333.728.728,0,0,1-.718.7h-1.219a.723.723,0,0,1-.728-.75,13.012,13.012,0,0,1,21.677-8.936,12.729,12.729,0,0,1,1.825,2.032,12.876,12.876,0,0,1,2.484,6.9A.726.726,0,0,1,1314.139,188.1Z" transform="translate(0 -0.202)" fill="#8a8a8a"/>
    <path id="패스_1105" data-name="패스 1105" d="M1301.966,163.058a3.716,3.716,0,1,1-3.716,3.716,3.72,3.72,0,0,1,3.716-3.716m0-2.663a6.379,6.379,0,1,0,6.379,6.379,6.379,6.379,0,0,0-6.379-6.379Z" transform="translate(-0.092)" fill="#8a8a8a"/>
    <path id="패스_1106" data-name="패스 1106" d="M1326.976,188.125h-1.219a.735.735,0,0,1-.723-.694,8.585,8.585,0,0,0-8.543-7.876,8.371,8.371,0,0,0-3.837.917,8.644,8.644,0,0,0-2.16,1.548,9.968,9.968,0,0,0-1.834-1.923,10.719,10.719,0,0,1,2.17-1.657,11.022,11.022,0,0,1,5.661-1.548,11.25,11.25,0,0,1,11.209,10.485A.717.717,0,0,1,1326.976,188.125Z" transform="translate(-0.271 -0.226)" fill="#8a8a8a"/>
    <path id="패스_1107" data-name="패스 1107" d="M1316.529,167.313a2.743,2.743,0,1,1-2.743,2.743,2.745,2.745,0,0,1,2.743-2.743m0-2.663a5.406,5.406,0,1,0,5.406,5.406,5.406,5.406,0,0,0-5.406-5.406Z" transform="translate(-0.305 -0.058)" fill="#8a8a8a"/>
  </g>
</svg>
