<svg xmlns="http://www.w3.org/2000/svg" width="21.001" height="21.002" viewBox="0 0 21.001 21.002">
    <g id="그룹_1863" data-name="그룹 1863" transform="translate(0.5 0.501)">
      <path id="합치기_18" data-name="합치기 18" d="M2.049,16.066a10.006,10.006,0,0,1-.7-11.08l0-.008.009-.016A9.955,9.955,0,0,1,3.868,2.1l.02-.015L3.9,2.075A9.959,9.959,0,0,1,7.6.291l.01,0L7.644.28a10,10,0,0,1,5,19.365,10,10,0,0,1-10.6-3.58Zm7.909,2.4H10a8.4,8.4,0,0,0,4.23-1.133q.327-.189.631-.4a8.5,8.5,0,0,0,2.625-2.982h0l.006-.011a8.5,8.5,0,0,0,.889-2.776l0-.024h0A8.429,8.429,0,0,0,17.326,5.77q-.181-.314-.385-.607l-.012-.017,0,0a8.452,8.452,0,0,0-6.113-3.564q-.4-.038-.814-.039a8.471,8.471,0,0,0-2.179.283l-.045.012h0a8.476,8.476,0,0,0-2.006.838q-.33.19-.637.406A8.441,8.441,0,0,0,1.662,8.561c0,.015-.006.03-.009.045a8.495,8.495,0,0,0,.991,5.581q.014.022.028.044A8.415,8.415,0,0,0,4.584,16.5l.034.03A8.491,8.491,0,0,0,9.957,18.462Z" transform="translate(0 0)" fill="#595858" stroke="rgba(0,0,0,0)" stroke-miterlimit="10" stroke-width="1"/>
      <path id="Path" d="M1.42.834A.779.779,0,0,0,.71,0,.779.779,0,0,0,0,.834V6.612A.912.912,0,0,0,.208,7.2l2.513,2.951a.638.638,0,0,0,1,0,.939.939,0,0,0,0-1.179L1.42,6.266Z" transform="translate(9.423 4.545)" fill="#595858"/>
    </g>
  </svg>
