<svg xmlns="http://www.w3.org/2000/svg" width="22" height="22" viewBox="0 0 22 22">
  <path id="패스_2917" data-name="패스 2917" d="M305.353,287.614l-1.654-5.567a1.7,1.7,0,0,0-1.63-1.217H287.4a1.7,1.7,0,0,0-1.63,1.217l-1.66,5.567-.377,1.8v1.75a1.7,1.7,0,0,0,1.7,1.7h.695v9.067a.9.9,0,1,0,1.8,0v-9.067h.515v2.283a.9.9,0,1,0,1.8,0v-2.283h8.987v2.283a.9.9,0,1,0,1.8,0v-2.283h.515v9.067a.9.9,0,1,0,1.8,0v-9.067h.7a1.7,1.7,0,0,0,1.7-1.7v-1.756Zm-17.77-4.986h14.289l1.642,4.986H285.941Zm16.35,8.438H285.528v-1.654h18.405Z" transform="translate(-283.73 -280.83)" fill="current"/>
</svg>
