<svg xmlns="http://www.w3.org/2000/svg" width="16" height="16" viewBox="0 0 16 16">
  <g id="edit" transform="translate(0 -0.004)">
    <g id="그룹_2457" data-name="그룹 2457" transform="translate(0 1.134)">
      <g id="그룹_2456" data-name="그룹 2456">
        <path id="패스_2919" data-name="패스 2919" d="M13.168,41a.572.572,0,0,0-.573.572v5.719a.572.572,0,0,1-.573.572H1.718a.572.572,0,0,1-.573-.572V35.853a.572.572,0,0,1,.573-.572h6.87a.572.572,0,1,0,0-1.144H1.718A1.717,1.717,0,0,0,0,35.853V47.291a1.717,1.717,0,0,0,1.718,1.716H12.023a1.717,1.717,0,0,0,1.718-1.716V41.572A.572.572,0,0,0,13.168,41Z" transform="translate(0 -34.137)" fill="#fff"/>
      </g>
    </g>
    <g id="그룹_2459" data-name="그룹 2459" transform="translate(3.572 0.004)">
      <g id="그룹_2458" data-name="그룹 2458">
        <path id="패스_2920" data-name="패스 2920" d="M114.2.637a2.162,2.162,0,0,0-3.059,0L103.7,8.078a.571.571,0,0,0-.136.221l-1.13,3.39a.565.565,0,0,0,.536.743.574.574,0,0,0,.179-.029l3.39-1.13a.565.565,0,0,0,.221-.137L114.2,3.7A2.163,2.163,0,0,0,114.2.637Zm-.8,2.26-7.344,7.344-2.194.733.73-2.191,7.347-7.344A1.032,1.032,0,1,1,113.4,2.9Z" transform="translate(-102.409 -0.004)" fill="#fff"/>
      </g>
    </g>
  </g>
</svg>
