<svg xmlns="http://www.w3.org/2000/svg" width="36.72" height="36.71" viewBox="0 0 36.72 36.71">
  <g id="패스_1099" data-name="패스 1099" transform="translate(-611.027 -151.46)" fill="none" stroke-linecap="round" stroke-linejoin="round">
    <path d="M 625.0870361328125 154.1600036621094 L 625.0870361328125 162.8099975585938 C 625.0870361328125 164.3011627197266 623.878173828125 165.5099945068359 622.3870239257813 165.5099945068359 L 613.7269897460938 165.5099945068359 L 613.7269897460938 174.1099853515625 L 622.3870239257813 174.1099853515625 C 623.878173828125 174.1099853515625 625.0870361328125 175.3188171386719 625.0870361328125 176.8099975585938 L 625.0870361328125 185.4700012207031 L 633.68701171875 185.4700012207031 L 633.68701171875 176.8099975585938 C 633.68701171875 175.3188171386719 634.8958740234375 174.1099853515625 636.3870239257813 174.1099853515625 L 645.0469970703125 174.1099853515625 L 645.0469970703125 165.5099945068359 L 636.3870239257813 165.5099945068359 C 634.8958740234375 165.5099945068359 633.68701171875 164.3011627197266 633.68701171875 162.8099975585938 L 633.68701171875 154.1600036621094 L 625.0870361328125 154.1600036621094 M 624.1929931640625 151.4600067138672 L 634.5809936523438 151.4600067138672 C 635.5780029296875 151.4600067138672 636.3870239257813 152.2689971923828 636.3870239257813 153.2660064697266 L 636.3870239257813 162.8099975585938 L 645.9409790039063 162.8099975585938 C 646.93798828125 162.8099975585938 647.7470092773438 163.6190032958984 647.7470092773438 164.6159973144531 L 647.7470092773438 175.0039978027344 C 647.7470092773438 176.0010070800781 646.93798828125 176.8099975585938 645.9409790039063 176.8099975585938 L 636.3870239257813 176.8099975585938 L 636.3870239257813 186.3639984130859 C 636.3870239257813 187.3609924316406 635.5780029296875 188.1699981689453 634.5809936523438 188.1699981689453 L 624.1929931640625 188.1699981689453 C 623.1959838867188 188.1699981689453 622.3870239257813 187.3609924316406 622.3870239257813 186.3639984130859 L 622.3870239257813 176.8099975585938 L 612.8330078125 176.8099975585938 C 611.8359985351563 176.8099975585938 611.0269775390625 176.0010070800781 611.0269775390625 175.0039978027344 L 611.0269775390625 164.6159973144531 C 611.0269775390625 163.6190032958984 611.8359985351563 162.8099975585938 612.8330078125 162.8099975585938 L 622.3870239257813 162.8099975585938 L 622.3870239257813 153.2660064697266 C 622.3870239257813 152.2689971923828 623.1959838867188 151.4600067138672 624.1929931640625 151.4600067138672 Z" stroke="none" fill="#8a8a8a"/>
  </g>
</svg>
