<svg xmlns="http://www.w3.org/2000/svg" width="36.5" height="36.5" viewBox="0 0 36.5 36.5">
  <path id="Shape" d="M14.244,31.6a4.9,4.9,0,0,1,9.128-2.461c3.721-1.641,5.116-4.216,5.116-9.114V14.689c0-7.107-4.008-12.018-10.238-12.018S8.012,7.583,8.012,14.689v6.232a1.337,1.337,0,0,1-1.335,1.335H4.9a4.9,4.9,0,0,1-4.9-4.9V15.58a4.9,4.9,0,0,1,4.9-4.9h.85C7.1,4.325,11.709,0,18.25,0S29.4,4.325,30.751,10.683H31.6a4.9,4.9,0,0,1,4.9,4.9v1.78a4.9,4.9,0,0,1-4.9,4.9h-.551c-.48,4.768-2.634,7.705-7.019,9.507a4.9,4.9,0,0,1-9.79-.159Zm2.671,0a2.225,2.225,0,1,0,2.226-2.226A2.228,2.228,0,0,0,16.915,31.6ZM31.159,19.587H31.6a2.228,2.228,0,0,0,2.226-2.226V15.58A2.228,2.228,0,0,0,31.6,13.355h-.444ZM2.671,15.58v1.78A2.228,2.228,0,0,0,4.9,19.587h.444V13.355H4.9A2.228,2.228,0,0,0,2.671,15.58Z" fill="#8a8a8a"/>
</svg>
