<svg xmlns="http://www.w3.org/2000/svg" width="34" height="34" viewBox="0 0 34 34">
  <g id="그룹_1852" data-name="그룹 1852" transform="translate(-1287.2 -151.651)">
    <path id="패스_1100" data-name="패스 1100" d="M1299.74,154.671a5.558,5.558,0,0,0,4.108,4.356,5.92,5.92,0,0,1-4.108-4.356Z" transform="translate(-1.017 -0.245)"/>
    <path id="패스_1101" data-name="패스 1101" d="M1305.167,159.58c.165.009.322.018.478.018a4.7,4.7,0,0,1-.515-.028A.055.055,0,0,0,1305.167,159.58Z" transform="translate(-1.454 -0.642)"/>
    <path id="패스_1102" data-name="패스 1102" d="M1318.287,151.651h-9.447a1.536,1.536,0,0,0-1.553,1.59,3.471,3.471,0,0,1-.12,1,3.081,3.081,0,0,1-2.426,2.187,3.228,3.228,0,0,1-1.461-.092,2.945,2.945,0,0,1-.552-.239,3.082,3.082,0,0,1-1.626-2.711v-.083a1.569,1.569,0,0,0-1.553-1.654h-9.437a2.914,2.914,0,0,0-2.913,2.913v5.063a2.914,2.914,0,0,0,2.913,2.913H1291v19.628a3.486,3.486,0,0,0,3.483,3.483h19.454a3.471,3.471,0,0,0,3.473-3.474V162.54h.882a2.914,2.914,0,0,0,2.913-2.913v-5.063A2.914,2.914,0,0,0,1318.287,151.651Zm.432,7.976a.431.431,0,0,1-.432.432h-.882a2.482,2.482,0,0,0-2.481,2.481v19.637a.988.988,0,0,1-.992.992h-19.454a1,1,0,0,1-1-1V162.54a2.483,2.483,0,0,0-2.481-2.481h-.882a.431.431,0,0,1-.432-.432v-5.063a.431.431,0,0,1,.432-.432h8.555a.056.056,0,0,0,.009.037c.019.083.028.175.046.257a5.92,5.92,0,0,0,4.107,4.356c.12.037.248.064.377.092.156.018.312.046.469.055a4.7,4.7,0,0,0,.515.028h.009a5.223,5.223,0,0,0,.542-.028,3.7,3.7,0,0,0,.459-.064,2.773,2.773,0,0,0,.294-.064,2.574,2.574,0,0,0,.358-.092c.147-.046.294-.1.441-.156.055-.018.1-.046.156-.064.138-.064.267-.129.4-.2a4.663,4.663,0,0,0,.459-.276s0-.009.009,0c.147-.11.285-.211.414-.322a3.665,3.665,0,0,0,.4-.358c.129-.129.248-.257.368-.4.1-.129.193-.257.285-.386a5.716,5.716,0,0,0,.313-.505,3.184,3.184,0,0,0,.193-.4c.064-.147.119-.294.175-.441.028-.1.064-.2.092-.3.037-.129.073-.257.1-.386s.046-.257.064-.386h8.564a.431.431,0,0,1,.432.432Z" />
  </g>
</svg>
