<?xml version="1.0" encoding="UTF-8" standalone="no"?><!DOCTYPE svg PUBLIC "-//W3C//DTD SVG 1.1//EN" "http://www.w3.org/Graphics/SVG/1.1/DTD/svg11.dtd"><svg width="100%" height="100%" viewBox="0 0 27 27" version="1.1" xmlns="http://www.w3.org/2000/svg" xmlns:xlink="http://www.w3.org/1999/xlink" xml:space="preserve" style="fill-rule:evenodd;clip-rule:evenodd;stroke-linejoin:round;stroke-miterlimit:2;"><rect id="Artboard1" x="0" y="0" width="26.5" height="26.5" style="fill:none;"/><clipPath id="_clip1"><rect x="0" y="0" width="26.5" height="26.5"/></clipPath><g clip-path="url(#_clip1)"><path id="Shape" d="M4.467,26.503c-2.367,0.081 -4.382,-1.798 -4.467,-4.164l0,-18.171c0.084,-2.368 2.1,-4.247 4.467,-4.165l13.326,-0c0.623,-0 1.136,0.512 1.136,1.136c-0,0.623 -0.513,1.136 -1.136,1.136l-13.326,-0c-1.121,-0.079 -2.11,0.773 -2.2,1.893l0,18.171c0.09,1.119 1.079,1.97 2.2,1.893l13.326,-0c0.623,-0 1.135,0.512 1.135,1.135c0,0.623 -0.512,1.136 -1.135,1.136l-13.326,-0Zm14.033,-6.39c-0.44,-0.442 -0.44,-1.166 -0,-1.607l4.118,-4.117l-13.911,-0c-0.623,-0 -1.136,-0.513 -1.136,-1.136c-0,-0.624 0.513,-1.136 1.136,-1.136l13.916,-0l-4.123,-4.114c-0.213,-0.214 -0.333,-0.504 -0.333,-0.805c-0,-0.625 0.513,-1.139 1.138,-1.139c0.302,0 0.592,0.12 0.805,0.334l6.057,6.057c0.213,0.212 0.333,0.501 0.333,0.802c-0,0.301 -0.12,0.59 -0.333,0.803l-6.057,6.058c-0.441,0.439 -1.166,0.439 -1.607,-0l-0.003,-0Z" style="fill:#d1d1d1;fill-rule:nonzero;"/></g></svg>