<svg xmlns="http://www.w3.org/2000/svg" width="37.035" height="37" viewBox="0 0 37.035 37">
  <g id="그룹_2430" data-name="그룹 2430" transform="translate(-57 -57.712)">
    <path id="Club" d="M71.9,84.686H67.7A.686.686,0,0,1,67.02,84V79.8a1.713,1.713,0,0,0-3.427,0V84a.682.682,0,0,1-.683.684H58.717a1.713,1.713,0,0,0,0,3.426h4.193a.677.677,0,0,1,.683.684v4.192a1.712,1.712,0,0,0,2.921,1.225A1.681,1.681,0,0,0,67.02,93V88.8a.681.681,0,0,1,.684-.684H71.9a1.713,1.713,0,0,0,0-3.426Zm20.388-6.593H79.09a1.716,1.716,0,0,0-1.717,1.71V92.988A1.722,1.722,0,0,0,79.09,94.7H92.277a1.716,1.716,0,0,0,1.709-1.717V79.8A1.709,1.709,0,0,0,92.283,78.092Zm-1.723,12.5a.682.682,0,0,1-.684.684H81.491a.682.682,0,0,1-.684-.684V82.2a.678.678,0,0,1,.684-.684h8.384a.678.678,0,0,1,.684.684Zm3.461-18.814a2.3,2.3,0,0,0-.315-.91L87.29,58.779a1.742,1.742,0,0,0-3.2-.027L77.675,70.836a2.3,2.3,0,0,0,1.662,3.488h12.7a2.259,2.259,0,0,0,1.5-.855A2.291,2.291,0,0,0,94.021,71.773Zm-4.753-1.2a.687.687,0,0,1-.588.329H82.688a.7.7,0,0,1-.588-.329.682.682,0,0,1-.013-.677l2.989-5.7a.717.717,0,0,1,1.217,0l3,5.7A.7.7,0,0,1,89.267,70.569ZM65.3,57.712a8.306,8.306,0,1,0,8.309,8.309A8.317,8.317,0,0,0,65.3,57.712ZM65.309,70.9a4.88,4.88,0,0,1-.007-9.76h.007a4.88,4.88,0,0,1,0,9.76Z" transform="translate(0 0)" fill="#3c70e8"/>
  </g>
</svg>
