<svg xmlns="http://www.w3.org/2000/svg" width="18.5" height="18.5" viewBox="0 0 18.5 18.5">
  <path id="합치기_27" data-name="합치기 27" d="M-1982.392,16.358V9.891h-6.467A1.141,1.141,0,0,1-1990,8.75a1.141,1.141,0,0,1,1.141-1.141h6.467V1.141A1.142,1.142,0,0,1-1981.25,0a1.141,1.141,0,0,1,1.141,1.141V7.609h6.467A1.141,1.141,0,0,1-1972.5,8.75a1.141,1.141,0,0,1-1.142,1.141h-6.467v6.467a1.141,1.141,0,0,1-1.141,1.142A1.142,1.142,0,0,1-1982.392,16.358Z" transform="translate(1990.5 0.5)" fill="#e6e6e6" stroke="rgba(0,0,0,0)" stroke-miterlimit="10" stroke-width="1"/>
</svg>
