<svg xmlns="http://www.w3.org/2000/svg" width="20" height="17.6" viewBox="0 0 20 17.6">
    <g id="tool" transform="translate(0 -32)">
      <g id="그룹_1793" data-name="그룹 1793" transform="translate(0 32)">
        <path id="패스_1008" data-name="패스 1008" d="M19.375,32H.625A.626.626,0,0,0,0,32.629v2.514a.627.627,0,0,0,.625.629H1.25v8.8A1.256,1.256,0,0,0,2.5,45.829H9.375v1.549l-1.6,1.071a.627.627,0,0,0,.692,1.046L10,48.47l1.529,1.025a.628.628,0,0,0,.694-1.046l-1.6-1.071V45.829H17.5a1.256,1.256,0,0,0,1.25-1.257v-8.8h.625A.627.627,0,0,0,20,35.143V32.629A.626.626,0,0,0,19.375,32ZM17.5,44.571H2.5v-8.8h15Zm1.25-10.057H1.25V33.257h17.5Z" transform="translate(0 -32)" fill="#595858"/>
      </g>
    </g>
  </svg>
