<svg xmlns="http://www.w3.org/2000/svg" width="16.521" height="19.47" viewBox="0 0 16.521 19.47">
  <path id="패스_2931" data-name="패스 2931" d="M205.683,402.667l-1.889,1.889a8.223,8.223,0,0,1,4.354,1.54,7.814,7.814,0,0,1,1.025.868c.043.043.082.082.121.129a6.433,6.433,0,0,1,.5.582,8.259,8.259,0,1,1-12.309-.714l1.072,1.072a6.746,6.746,0,1,0,10.159.721,6.373,6.373,0,0,0-.5-.59c-.039-.047-.079-.085-.122-.128a6.691,6.691,0,0,0-4.915-1.972l2.5,2.5-1.071,1.071-4.018-4.018,4.018-4.018Z" transform="translate(-195.07 -401.596)" fill="current"/>
</svg>