<svg xmlns="http://www.w3.org/2000/svg" width="32.208" height="39.64" viewBox="0 0 32.208 39.64">
  <g id="trash" transform="translate(-48)">
    <path id="패스_2934" data-name="패스 2934" d="M77.111,4.955H70.3V3.716A3.72,3.72,0,0,0,66.581,0H61.626A3.72,3.72,0,0,0,57.91,3.716V4.955H51.1a3.1,3.1,0,0,0-3.1,3.1v4.336a1.239,1.239,0,0,0,1.239,1.239h.677L50.986,36.1A3.712,3.712,0,0,0,54.7,39.64H73.51a3.712,3.712,0,0,0,3.712-3.54l1.07-22.474h.677a1.239,1.239,0,0,0,1.239-1.239V8.052A3.1,3.1,0,0,0,77.111,4.955ZM60.388,3.716a1.24,1.24,0,0,1,1.239-1.239h4.955A1.24,1.24,0,0,1,67.82,3.716V4.955H60.388Zm-9.91,4.336a.62.62,0,0,1,.619-.619H77.111a.62.62,0,0,1,.619.619v3.1H50.478ZM74.747,35.983a1.237,1.237,0,0,1-1.237,1.18H54.7a1.237,1.237,0,0,1-1.237-1.18L52.4,13.626H75.812Z" transform="translate(0)"/>
    <path id="패스_2935" data-name="패스 2935" d="M241.239,226.581a1.239,1.239,0,0,0,1.239-1.239v-16.1a1.239,1.239,0,0,0-2.478,0v16.1A1.239,1.239,0,0,0,241.239,226.581Z" transform="translate(-177.135 -191.896)" />
    <path id="패스_2936" data-name="패스 2936" d="M321.239,226.581a1.239,1.239,0,0,0,1.239-1.239v-16.1a1.239,1.239,0,0,0-2.478,0v16.1A1.239,1.239,0,0,0,321.239,226.581Z" transform="translate(-250.941 -191.896)" />
    <path id="패스_2937" data-name="패스 2937" d="M161.239,226.581a1.239,1.239,0,0,0,1.239-1.239v-16.1a1.239,1.239,0,0,0-2.478,0v16.1A1.239,1.239,0,0,0,161.239,226.581Z" transform="translate(-103.329 -191.896)" />
  </g>
</svg>
