<svg id="그룹_2898" data-name="그룹 2898" xmlns="http://www.w3.org/2000/svg" width="49.495" height="49.495" viewBox="0 0 49.495 49.495">
  <g id="타원_158" data-name="타원 158" transform="translate(0 0)">
    <path id="패스_3368" data-name="패스 3368" d="M1276.771,1223.633a24.748,24.748,0,1,1,24.748-24.748A24.747,24.747,0,0,1,1276.771,1223.633Zm0-47.02a22.273,22.273,0,1,0,22.273,22.273h0A22.3,22.3,0,0,0,1276.771,1176.613Z" transform="translate(-1252.024 -1174.138)" fill="#57b894"/>
  </g>
  <g id="신청_완료" data-name="신청 완료" transform="translate(13.964 11.363)">
    <g id="그룹_2885" data-name="그룹 2885" transform="translate(0.086)">
      <path id="패스_3369" data-name="패스 3369" d="M1269.481,1189.726a1.424,1.424,0,0,1-.3.442,6.464,6.464,0,0,1-.527.54q-.382.358-.9.786t-1.007.823l-.725-.859q.3-.221.583-.454c.191-.154.376-.307.552-.454s.338-.289.485-.424.274-.255.381-.362a3.657,3.657,0,0,0,.387-.448,2.229,2.229,0,0,0,.245-.443,2.1,2.1,0,0,0,.129-.485,4.144,4.144,0,0,0,.037-.577v-1.756h1.228v1.707c0,.188.006.358.019.51a1.928,1.928,0,0,0,.08.424,1.457,1.457,0,0,0,.19.387,2.075,2.075,0,0,0,.35.387q.429.4.951.817c.349.28.707.553,1.074.817l-.712.847q-.468-.355-.921-.731l-.9-.742a4.65,4.65,0,0,1-.46-.424,1.272,1.272,0,0,1-.24-.326Zm-.05,5.939h6.128v1.056h-7.341v-3.807h1.216Zm4.653-2.088v-8.056h1.2v8.056Z" transform="translate(-1266.028 -1185.435)" fill="#57b894"/>
      <path id="패스_3370" data-name="패스 3370" d="M1280.908,1189.946a1.792,1.792,0,0,1-.3.436,4.3,4.3,0,0,1-.527.522q-.4.345-.879.725c-.323.252-.655.495-1,.737l-.712-.872q.594-.419,1.107-.817a10.638,10.638,0,0,0,.846-.719,4.144,4.144,0,0,0,.382-.43,1.914,1.914,0,0,0,.25-.429,2.075,2.075,0,0,0,.135-.479,3.529,3.529,0,0,0,.043-.594v-.21h-2.444v-1.042h2.444v-1.339h1.227v1.339h2.286v1.042h-2.286v.159a4.866,4.866,0,0,0,.025.511,1.933,1.933,0,0,0,.092.423,1.581,1.581,0,0,0,.19.376,2.083,2.083,0,0,0,.332.361c.286.262.594.513.909.755s.663.481,1.031.719l-.688.884c-.318-.221-.619-.437-.9-.651s-.565-.442-.858-.688a5.829,5.829,0,0,1-.46-.412,1.161,1.161,0,0,1-.241-.313Zm-1.119,4.63a1.574,1.574,0,0,1,.227-.8,2.039,2.039,0,0,1,.669-.669,3.844,3.844,0,0,1,1.094-.454,6.515,6.515,0,0,1,2.97,0,3.825,3.825,0,0,1,1.089.454,2.02,2.02,0,0,1,.669.669,1.569,1.569,0,0,1,.229.8v.495a1.551,1.551,0,0,1-.229.811,2.041,2.041,0,0,1-.669.663,3.821,3.821,0,0,1-1.089.454,6.484,6.484,0,0,1-2.97,0,3.782,3.782,0,0,1-1.094-.454,2.058,2.058,0,0,1-.669-.663,1.561,1.561,0,0,1-.227-.811Zm5.759.1a.726.726,0,0,0-.153-.424,1.419,1.419,0,0,0-.442-.387,2.818,2.818,0,0,0-.712-.282,4.382,4.382,0,0,0-1.951,0,2.758,2.758,0,0,0-.714.282,1.419,1.419,0,0,0-.443.387.727.727,0,0,0-.153.424v.3a.722.722,0,0,0,.153.424,1.407,1.407,0,0,0,.443.387,2.754,2.754,0,0,0,.714.282,4.358,4.358,0,0,0,1.951,0,2.739,2.739,0,0,0,.712-.282,1.406,1.406,0,0,0,.442-.387.721.721,0,0,0,.153-.424Zm-.061-2.358v-2.6h-2.063v-1.043h2.063v-3.142h1.2v6.791Z" transform="translate(-1266.144 -1185.434)" fill="#57b894"/>
    </g>
    <g id="그룹_2886" data-name="그룹 2886" transform="translate(0 14.828)">
      <path id="패스_3371" data-name="패스 3371" d="M1273.149,1207.216q-.736.074-1.419.129t-1.5.086q-.818.031-1.848.05t-2.444.018v-1.043h1.591q.705,0,1.32-.012v-1.179a3.618,3.618,0,0,1-.9-.251,2.512,2.512,0,0,1-.706-.448,1.99,1.99,0,0,1-.454-.6,1.637,1.637,0,0,1-.159-.725v-.516a1.62,1.62,0,0,1,.215-.817,2.1,2.1,0,0,1,.594-.651,2.972,2.972,0,0,1,.891-.436,4.074,4.074,0,0,1,2.253,0,2.993,2.993,0,0,1,.9.436,2.112,2.112,0,0,1,.594.651,1.62,1.62,0,0,1,.215.817v.516a1.584,1.584,0,0,1-.166.725,2.055,2.055,0,0,1-.46.6,2.526,2.526,0,0,1-.7.448,3.518,3.518,0,0,1-.9.251v1.142c.525-.016,1.02-.042,1.485-.073s.97-.073,1.51-.123Zm-4.2,3.366h6.312v1.044h-7.523v-3.156h1.216Zm.5-8.9a1.954,1.954,0,0,0-1.228.338,1,1,0,0,0-.43.8v.319a1,1,0,0,0,.43.8,2.4,2.4,0,0,0,2.456,0,1,1,0,0,0,.43-.8v-.319a1,1,0,0,0-.43-.8,1.959,1.959,0,0,0-1.225-.338Zm4.3,7.208v-8.474h1.2v3.6h1.6v1.056h-1.6v3.819Z" transform="translate(-1265.941 -1200.413)" fill="#57b894"/>
      <path id="패스_3372" data-name="패스 3372" d="M1278.7,1207.261v-3.5h6.214v-1.413h-6.262v-1.031h7.465v3.475H1279.9v1.437h6.485v1.031h-1.622v1.94h2.862v1.031h-10.392V1209.2h2.96v-1.94Zm2.689,1.94h2.186v-1.94h-2.186Z" transform="translate(-1266.055 -1200.422)" fill="#57b894"/>
    </g>
  </g>
</svg>
