<svg xmlns="http://www.w3.org/2000/svg" viewBox="0 0 161.5 180.5"><defs><style>.cls-1,.cls-6{fill:#448ef1;}.cls-1,.cls-2,.cls-3,.cls-4,.cls-5,.cls-8{isolation:isolate;}.cls-2,.cls-7{fill:#2857ed;}.cls-3{fill:#ec5e50;}.cls-4{fill:#2657ef;}.cls-5{fill:#e83e2b;}</style></defs><g id="레이어_2" data-name="레이어 2"><g id="레이어_1-2" data-name="레이어 1"><path class="cls-1" d="M161.5,93.54V111.1h0c0,.17,0,.33,0,.5,0,42.25-36.15,76.5-80.75,76.5a83.17,83.17,0,0,1-50.18-16.57A75.86,75.86,0,0,1,1.44,126,72.06,72.06,0,0,1,0,111.6c0-.17,0-.33,0-.5H0V93.54C0,86.39,6.11,80.6,13.66,80.6H147.84C155.39,80.6,161.5,86.39,161.5,93.54Z" transform="translate(0 -7.6)"/><path class="cls-2" d="M161.5,93.54V111.1h0c0,.17,0,.33,0,.5,0,42.25-36.15,76.5-80.75,76.5a83.17,83.17,0,0,1-50.18-16.57A75.86,75.86,0,0,1,1.44,126,224.19,224.19,0,0,0,57,117.1c32.1-9.4,50.89-24.32,66.76-36.5h24.08C155.39,80.6,161.5,86.39,161.5,93.54Z" transform="translate(0 -7.6)"/><path class="cls-3" d="M161.5,111.1h0c0,.17,0,.33,0,.5,0,1.17,0,2.34-.08,3.5-1.94,40.63-37.31,73-80.67,73a83.68,83.68,0,0,1-41.08-10.63,80.33,80.33,0,0,1-9.1-5.94A84,84,0,0,1,44.33,152.1c19.74-20.84,44.19-25.77,51.73-27a68.85,68.85,0,0,1,27.44-23,73.62,73.62,0,0,1,38-6.25Z" transform="translate(0 -7.6)"/><path class="cls-4" d="M106.61,149.4a3.16,3.16,0,0,1-3.13-2.42,45.52,45.52,0,0,0-7.73-17.09,47.83,47.83,0,0,0-8.59-8.95,2.91,2.91,0,0,1-.37-4.27,3.32,3.32,0,0,1,4.51-.36A54,54,0,0,1,101,126.43a51.3,51.3,0,0,1,8.73,19.31,3,3,0,0,1-2.47,3.59A3.8,3.8,0,0,1,106.61,149.4Z" transform="translate(0 -7.6)"/><path class="cls-5" d="M161.42,115.1c-1.94,40.63-37.31,73-80.67,73a83.68,83.68,0,0,1-41.08-10.63A116.61,116.61,0,0,0,76,179.1a111.6,111.6,0,0,0,43.28-14C142.2,151.61,154.68,131.45,161.42,115.1Z" transform="translate(0 -7.6)"/><path class="cls-6" d="M69.85,44.47l-14.7-27a17.45,17.45,0,0,0-15.4-9.42,17,17,0,0,0-4.13.51h0c-.53.13-1.06.29-1.58.47l-.15.06c-.47.17-.93.37-1.38.58l-.2.09c-.48.23-.94.49-1.4.76l-.26.17c-.41.26-.8.53-1.19.82l-.18.13c-.43.33-.84.69-1.24,1.06-.08.09-.17.17-.26.26-.37.36-.73.74-1.07,1.14l-.1.11a15.73,15.73,0,0,0-1,1.36l-.25.36c-.3.46-.6.93-.87,1.43l-.06.1-14.7,27C6.87,49.57,10.85,55.6,17,55.6h0l.3,0a8.71,8.71,0,0,0,3.63-.93,8,8,0,0,0,2.39-1.84,7.38,7.38,0,0,0,1-1.4L38.18,26a1.87,1.87,0,0,1,.23-.36l.05-.06A1.61,1.61,0,0,1,39.75,25a1.83,1.83,0,0,1,.49.06h0a1.33,1.33,0,0,1,.38.17v0a1.87,1.87,0,0,1,.69.74L55.18,51.4a8.34,8.34,0,0,0,7.34,4.2C68.65,55.6,72.63,49.57,69.85,44.47Z" transform="translate(0 -7.6)"/><path class="cls-1" d="M150.68,36.92c0-.31,0-.62,0-.93s0-.39,0-.59,0-.2,0-.3,0-.2,0-.29c0-.31,0-.61,0-.92,0-.12,0-.24,0-.35,0-.39,0-.77-.08-1.15,0,0,0-.1,0-.16A27.53,27.53,0,0,0,130.88,8.64v0a27.5,27.5,0,1,0,19.78,28.37A.57.57,0,0,0,150.68,36.92ZM108.75,35.1a14.49,14.49,0,0,1,28.45-3.91c.21,2,.35,4,.37,6.06a14.49,14.49,0,0,1-28.82-2.15Z" transform="translate(0 -7.6)"/><path class="cls-7" d="M62.52,55.6a8.33,8.33,0,0,1-7.34-4.19L41.32,26a1.82,1.82,0,0,0-.69-.75v0a1.33,1.33,0,0,0-.38-.17h0a1.83,1.83,0,0,0-.49-.06V8.08a17.47,17.47,0,0,1,15.4,9.42l14.7,27C72.63,49.57,68.65,55.6,62.52,55.6Z" transform="translate(0 -7.6)"/><g class="cls-8"><path class="cls-7" d="M123.25,7.6h-.09v13h.09A14.51,14.51,0,0,1,137.2,31.2c.21,2,.35,4,.37,6.05A14.5,14.5,0,0,1,123.25,49.6h-.09v13h.09a27.49,27.49,0,0,0,27.42-25.54.66.66,0,0,0,0-.14c0-.31,0-.62,0-.92s0-.4,0-.59,0-.21,0-.31,0-.19,0-.29c0-.31,0-.61,0-.91,0-.12,0-.24,0-.36,0-.38,0-.76-.08-1.15,0,0,0-.1,0-.15a27.53,27.53,0,0,0-19.72-23.6s0,0,0,0a27.49,27.49,0,0,0-7.64-1.08Z" transform="translate(0 -7.6)"/></g></g></g></svg>