<svg xmlns="http://www.w3.org/2000/svg" viewBox="0 0 434.01 116.04"><defs><style>.cls-1{isolation:isolate;}.cls-2{fill:#333;}.cls-3{fill:#448ef1;}.cls-4{fill:#2857ed;}.cls-5{fill:#ec5e50;}.cls-6{fill:#2657ef;}.cls-7{fill:#e83e2b;}</style></defs><g id="레이어_2" data-name="레이어 2"><g id="레이어_1-2" data-name="레이어 1"><g id="레이어_2-2" data-name="레이어 2"><g id="레이어_1-2-2" data-name="레이어 1-2"><g class="cls-1"><path class="cls-2" d="M161.51,27.8h41.22v11H173.24v31h34.42v2a8.41,8.41,0,0,1-2.86,6.46,10.8,10.8,0,0,1-7.59,2.61h-35.7Zm51.68,0h11.54V94.37H213.19Z"/><path class="cls-2" d="M232.52,79.87V27.8h45.17V70.7a8.47,8.47,0,0,1-2.91,6.51,10.86,10.86,0,0,1-7.64,2.66Zm11.24-11h22.69v-30H243.76Zm40.44-41h11.54V94.37H284.2Z"/><path class="cls-2" d="M335.88,81.85h31.66v2.07a8.31,8.31,0,0,1-2.86,6.36,10.7,10.7,0,0,1-7.5,2.61H302.54v-11h21.8V59.16h11.54ZM309.35,27.9h51.18V75.14H348.8V38.94H309.35Z"/><path class="cls-2" d="M394.17,25.83a25.34,25.34,0,0,1,10,1.92A23.18,23.18,0,0,1,417,40.92a26.87,26.87,0,0,1,1.77,9.86A27.3,27.3,0,0,1,417,60.69a23.23,23.23,0,0,1-5,7.94,22.89,22.89,0,0,1-7.79,5.23,27.73,27.73,0,0,1-20,0,21.86,21.86,0,0,1-7.7-5.23,23.38,23.38,0,0,1-5-7.94,27.3,27.3,0,0,1-1.77-9.91,26.87,26.87,0,0,1,1.77-9.86,23.46,23.46,0,0,1,5-7.89,22.39,22.39,0,0,1,7.7-5.28A25.52,25.52,0,0,1,394.17,25.83Zm0,38.56a13.6,13.6,0,0,0,5.32-1,14.22,14.22,0,0,0,4.34-2.81,12.17,12.17,0,0,0,2.91-4.29,14.21,14.21,0,0,0,1-5.47,13.94,13.94,0,0,0-1-5.43,12.44,12.44,0,0,0-2.91-4.24,13.73,13.73,0,0,0-4.34-2.76,14.14,14.14,0,0,0-5.32-1,14.56,14.56,0,0,0-5.38,1,13.52,13.52,0,0,0-4.39,2.76,12.44,12.44,0,0,0-2.91,4.24,13.93,13.93,0,0,0-1,5.43,14.21,14.21,0,0,0,1,5.47,12.17,12.17,0,0,0,2.91,4.29,14.21,14.21,0,0,0,9.77,3.85Zm-11.74,47V80.56h11.24v19.83H434v2.07a8.28,8.28,0,0,1-2.86,6.36,10.68,10.68,0,0,1-7.49,2.61ZM422.57,27.8H434V85H422.57Z"/></g></g></g><g id="레이어_2-3" data-name="레이어 2"><g id="레이어_1-2-3" data-name="레이어 1-2"><path class="cls-3" d="M103.8,55.27V66.55h0v.32C103.8,94,80.56,116,51.9,116a53.46,53.46,0,0,1-32.25-10.65A48.72,48.72,0,0,1,.93,76.13,46.47,46.47,0,0,1,0,66.87v-.32H0V55.27A8.56,8.56,0,0,1,8.78,47H95A8.56,8.56,0,0,1,103.8,55.27Z"/><path class="cls-4" d="M103.8,55.27V66.55h0v.32C103.8,94,80.56,116,51.9,116a53.46,53.46,0,0,1-32.25-10.65A48.72,48.72,0,0,1,.93,76.13a144,144,0,0,0,35.7-5.72c20.63-6,32.71-15.63,42.91-23.46H95A8.56,8.56,0,0,1,103.8,55.27Z"/><path class="cls-5" d="M103.8,66.55h0v.32c0,.76,0,1.51-.06,2.25C102.5,95.24,79.76,116,51.9,116a53.72,53.72,0,0,1-26.4-6.83,51.53,51.53,0,0,1-5.85-3.82A53.86,53.86,0,0,1,28.49,92.9c12.69-13.39,28.4-16.56,33.25-17.35A44.13,44.13,0,0,1,79.37,60.77a47.37,47.37,0,0,1,24.43-4Z"/><path class="cls-6" d="M68.52,91.17a2,2,0,0,1-2-1.56,29.39,29.39,0,0,0-5-11A30.68,30.68,0,0,0,56,72.88a1.88,1.88,0,0,1-.34-2.63l.1-.12a2.15,2.15,0,0,1,2.9-.23,34.62,34.62,0,0,1,6.23,6.51,32.71,32.71,0,0,1,5.61,12.41A1.91,1.91,0,0,1,69,91.1l-.1,0A3,3,0,0,1,68.52,91.17Z"/><path class="cls-7" d="M103.74,69.12C102.5,95.24,79.76,116,51.9,116a53.72,53.72,0,0,1-26.4-6.83,75,75,0,0,0,23.34,1.05,71.71,71.71,0,0,0,27.82-9C91.39,92.59,99.41,79.63,103.74,69.12Z"/><path class="cls-3" d="M44.89,23.73,35.44,6.38A11.22,11.22,0,0,0,25.55.32a10.83,10.83,0,0,0-2.66.33h0c-.34.08-.68.19-1,.3l-.1,0c-.3.11-.6.24-.89.37l-.12.06c-.31.15-.61.32-.9.49L19.7,2c-.26.17-.52.34-.77.53l-.11.08a10.27,10.27,0,0,0-.8.68l-.17.17a9.46,9.46,0,0,0-.68.73l-.07.07a9.43,9.43,0,0,0-.64.88l-.16.23c-.19.29-.39.6-.56.92l0,.06L6.25,23.72C4.42,27,7,30.88,10.93,30.88h.19a5.54,5.54,0,0,0,2.33-.59A5.26,5.26,0,0,0,15,29.1a4.44,4.44,0,0,0,.64-.9l8.91-16.34a1.14,1.14,0,0,1,.15-.23l0,0a1,1,0,0,1,.83-.37,1.1,1.1,0,0,1,.31,0h0a1.09,1.09,0,0,1,.25.1h0a1.27,1.27,0,0,1,.44.48l8.91,16.34a5.36,5.36,0,0,0,4.72,2.7C44.12,30.88,46.68,27,44.89,23.73Z"/><path class="cls-3" d="M96.84,18.88V16.71a3.59,3.59,0,0,0,0-.74v-.11A17.71,17.71,0,0,0,84.12.7h0A17.68,17.68,0,1,0,96.18,22.6a18.24,18.24,0,0,0,.65-3.66S96.84,18.9,96.84,18.88ZM69.89,17.71A9.32,9.32,0,0,1,88.18,15.2c.13,1.28.22,2.57.24,3.89a9.32,9.32,0,0,1-18.53-1.38Z"/><path class="cls-4" d="M40.18,30.88a5.35,5.35,0,0,1-4.72-2.69l-8.9-16.33a1.16,1.16,0,0,0-.45-.48h0a.66.66,0,0,0-.24-.11h0a1.12,1.12,0,0,0-.32,0V.34a11.24,11.24,0,0,1,9.9,6.06L44.9,23.75C46.68,27,44.12,30.88,40.18,30.88Z"/><path class="cls-4" d="M79.21,0h-.06V8.39h.06a9.34,9.34,0,0,1,9,6.81c.13,1.29.22,2.57.24,3.89A9.33,9.33,0,0,1,79.21,27h-.06v8.35h.06A17.65,17.65,0,0,0,96.83,19a.14.14,0,0,0,0-.09V16.71a3.69,3.69,0,0,0,0-.74v-.1A17.7,17.7,0,0,0,84.11.7h0A17.75,17.75,0,0,0,79.2,0Z"/></g></g></g></g></svg>