<svg xmlns="http://www.w3.org/2000/svg" width="20.8" height="26" viewBox="0 0 20.8 26">
  <path id="icons8-google-docs" d="M10.925,4A2.94,2.94,0,0,0,8,6.925v20.15A2.94,2.94,0,0,0,10.925,30h14.95A2.94,2.94,0,0,0,28.8,27.075V12.125a.975.975,0,0,0-.286-.689l-.01-.01-7.14-7.14A.975.975,0,0,0,20.675,4Zm0,1.95H19.7v4.225A2.94,2.94,0,0,0,22.625,13.1H26.85V27.075a.96.96,0,0,1-.975.975H10.925a.96.96,0,0,1-.975-.975V6.925A.96.96,0,0,1,10.925,5.95ZM21.65,7.329l3.821,3.821H22.625a.96.96,0,0,1-.975-.975ZM14.175,15.7a.975.975,0,1,0,0,1.95h8.45a.975.975,0,1,0,0-1.95Zm0,3.9a.975.975,0,1,0,0,1.95h8.45a.975.975,0,1,0,0-1.95Zm0,3.9a.975.975,0,1,0,0,1.95h5.85a.975.975,0,1,0,0-1.95Z" transform="translate(-8 -4)" fill="#fbfbfb"/>
</svg>
